<svg
	xmlns="http://www.w3.org/2000/svg"
	viewBox="0 0 100 32.92088233"
>
	<rect
		width="100"
		height="32.92088233"
		fill="white"
	/>
	<path
		fill="black"
		d="M49.60665082 7.77809456c0 4.34142604-1.77327165 5.37614155-5.616059 5.37614155h-6.06057333c-2.88188935 0-5.3206196 1.14588643-6.31806638 6.1337132h-.70200737c-.99778558-4.98782677-3.4551502-6.1337132-6.33737836-6.1337132h-6.05989571c-3.82444945 0-5.5981446-1.0347155-5.5981446-5.37614155H7.77825962c0 7.38996592 1.86618937 11.73219662 10.19871537 11.73219662h4.7111488c3.88001374 0 5.46863576 1.44056352 5.46863576 5.63494748h6.20765776c0-4.19438396 1.58963845-5.63494748 5.46905927-5.63494748h4.69247208c8.33324597 0 10.19871538-4.3422307 10.19871538-11.73219662h-5.11801323ZM73.84375 14.44213062c-.1328125-1.55566407-1.15332031-2.609375-2.94335938-2.609375-2.3408203 0-3.61132812 1.7734375-3.61132812 4.75 0 3.14453125 1.3125 4.75 3.578125 4.75 1.70605469 0 2.74316406-.91210938 2.9765625-2.375l4.71679688.03320312c-.234375 2.91015625-2.7763672 6.38867188-7.79296876 6.38867188-4.71679687 0-8.26171874-3.10253907-8.26171874-8.796875 0-5.71972657 3.6455078-8.796875 8.26171875-8.796875 4.31445312 0 7.42480468 2.40820312 7.79296874 6.65625H73.84375Zm6.8125-6.421875h4.64941406v13.37890625h6.92382813v3.74609375H80.65625v-17.125Z"
	/>
</svg>