<svg xmlns="http://www.w3.org/2000/svg" viewBox="0 0 100 100">
	<rect width="100" height="100" fill="black" />
	<path
		fill="white"
		d="M69.1309 54.3936H62.3682C56.7773 54.3936 54.4863 56.4697 54.4863 62.5146H45.54C45.54 56.4697 43.2505 54.3936 37.6587 54.3936H30.8691C18.8604 54.3936 16.1709 48.1357 16.1709 37.4854H23.5732C23.5732 43.7422 26.1294 45.2334 31.6411 45.2334H40.3745C44.5283 45.2334 48.0698 46.8848 49.5078 54.0732H50.5195C51.957 46.8848 55.4717 45.2334 59.625 45.2334H68.3594C73.8975 45.2334 76.4531 43.7422 76.4531 37.4854H83.8291C83.8291 48.1357 81.1406 54.3936 69.1309 54.3936Z"
	/>
</svg>